<svg xmlns="http://www.w3.org/2000/svg" xmlns:xlink="http://www.w3.org/1999/xlink" viewBox="0 0 610.82 697.12"><defs><style>.cls-1{fill:url(#radial-gradient);}.cls-2{fill:#ed1e79;}.cls-3{fill:#fff;}</style><radialGradient id="radial-gradient" cx="191.59" cy="288" r="436.97" gradientUnits="userSpaceOnUse"><stop offset="0" stop-color="#ed1e79"/><stop offset="0.54" stop-color="#ed1e79"/><stop offset="1" stop-color="#6d0063"/></radialGradient></defs><title>logo</title><g id="Calque_2" data-name="Calque 2"><g id="Layer_1" data-name="Layer 1"><circle class="cls-1" cx="359.36" cy="445.66" r="251.46"/><circle class="cls-2" cx="350.35" cy="194.33" r="39.69"/><circle class="cls-2" cx="180.84" cy="273.06" r="59.46"/><circle class="cls-3" cx="102.85" cy="352.2" r="52.19"/><circle class="cls-3" cx="265.85" cy="211.9" r="45.72"/><circle class="cls-2" cx="105.56" cy="346.82" r="31.68"/><circle class="cls-2" cx="117.59" cy="193.2" r="22.75"/><circle class="cls-2" cx="22.75" cy="308.08" r="22.75"/><circle class="cls-2" cx="332.7" cy="108.83" r="22.75"/><circle class="cls-2" cx="117.85" cy="14.1" r="14.1"/><circle class="cls-2" cx="234.03" cy="109.15" r="13.15"/><circle class="cls-2" cx="35.94" cy="208.19" r="13.16"/><circle class="cls-2" cx="73.33" cy="122.29" r="13.16"/><circle class="cls-2" cx="265.36" cy="50.53" r="13.15"/><circle class="cls-2" cx="265.85" cy="207.9" r="31.68"/><circle class="cls-2" cx="105.52" cy="443.03" r="39.69"/><path class="cls-3" d="M506.21,581.36H470.75c-23.78,0-47.56-12.11-57.07-29.83L350.56,424.85l-41.94,87.33H367a69.38,69.38,0,0,1-69.17,69.17H194.92L350.56,270.07Z"/></g></g></svg>