<svg id="svg28031" height="512" viewBox="0 0 16.933333 16.933334" width="512" xmlns="http://www.w3.org/2000/svg" xmlns:svg="http://www.w3.org/2000/svg"><g id="layer1" transform="translate(0 -280.067)"><path fill="#ed1e79" id="path39624" d="m3.1631152 280.8485c-.2645304.008-.4969192.14761-.6914304.3421l-.32453.32401 3.5170984 3.58118.5105639-.51057c.3076998-.30769.3076919-.81575 0-1.12344l-2.2716967-2.27118c-.2200301-.22003-.4754853-.35022-.7400052-.3421zm6.0967832 1.33377c3.0717676 0 5.5567686 2.485 5.5567686 5.55677-.008.3607.537173.3607.529167 0 0-3.35775-2.728185-6.08387-6.0985959-6.08387-.3372405.0404-.3142932.51805.012674.5271zm-7.4879122-.29352-.3725885.37207c-.60967084.60966-.60564759 1.40739-.60564759 1.7756 0 1.52363.60912029 4.15774 4.31033259 7.85895 3.7012192 3.70122 6.3358393 4.31085 7.8594663 4.31085.36825.00001 1.165956.004 1.775603-.60564l.336931-.33694-3.517098-3.58117-.368969.36948c-.21866.21866-.380016.2448-.536919.22635-.15689-.0184-.319088-.10919-.437698-.20103-.6467794-.50073-1.6939579-1.21749-2.8845803-2.40812-1.1906277-1.19062-1.9073813-2.23832-2.4081211-2.88509-.0918-.11862-.1825731-.27874-.2010225-.43563-.018494-.1569.0099-.32033.2284095-.53899l.339516-.33951zm7.4879149 1.35237c-.3450643.008-.3450643.52154 0 .52917 2.1950129 0 3.9687499 1.77373 3.9687499 3.96875.0076.34503.521507.34503.529167 0 0-2.481-2.016921-4.49792-4.4979169-4.49792zm0 1.5875c-.3531209 0-.3531209.52969 0 .52969 1.3182599 0 2.3807319 1.06247 2.3807319 2.38073 0 .35312.529685.35312.529685 0-.000003-1.60425-1.306171-2.91042-2.9104169-2.91042zm-.0000027 2.1177c.4415103 0 .7953006.35121.7953006.79272-.008.3607.537173.3607.529167 0 0-.72749-.5969719-1.3224-1.3371279-1.3224-.3655166.0171-.3401959.5468.012674.52968zm3.7160546 3.64784c-.203808 0-.407363.0771-.561205.231l-.481626.48214 3.517614 3.58169.358635-.35863c.1945-.1945.333451-.42898.341582-.6935.008-.26453-.121549-.51998-.341582-.74001l-2.271694-2.27169c-.15385-.15385-.357915-.231-.561724-.231z" font-variant-ligatures="normal" font-variant-position="normal" font-variant-caps="normal" font-variant-numeric="normal" font-variant-alternates="normal" font-feature-settings="normal" text-indent="0" text-align="start" text-decoration-line="none" text-decoration-style="solid" text-decoration-color="rgb(0,0,0)" text-transform="none" text-orientation="mixed" white-space="normal" shape-padding="0" isolation="auto" mix-blend-mode="normal" solid-color="rgb(0,0,0)" solid-opacity="1" vector-effect="none"/></g></svg>